<svg width="80" height="50" viewBox="0 0 80 50" fill="none" xmlns="http://www.w3.org/2000/svg">
<path d="M75.171 50C73.5931 50 72.3915 49.5835 71.5662 48.7506C70.7501 47.9086 70.342 46.718 70.342 45.1788C70.342 43.6397 70.7501 42.4536 71.5662 41.6206C72.3915 40.7786 73.5931 40.3576 75.171 40.3576C76.7489 40.3576 77.946 40.7786 78.7621 41.6206C79.5874 42.4536 80 43.6397 80 45.1788C80 46.718 79.5874 47.9086 78.7621 48.7506C77.946 49.5835 76.7489 50 75.171 50ZM75.171 48.0579C75.8874 48.0579 76.4134 47.818 76.7489 47.3382C77.0935 46.8583 77.2658 46.1385 77.2658 45.1788C77.2658 44.2282 77.0935 43.5129 76.7489 43.033C76.4134 42.5532 75.8874 42.3133 75.171 42.3133C74.4546 42.3133 73.9241 42.5532 73.5795 43.033C73.2439 43.5129 73.0762 44.2282 73.0762 45.1788C73.0762 46.1385 73.2439 46.8583 73.5795 47.3382C73.9241 47.818 74.4546 48.0579 75.171 48.0579Z" fill="#3700B3"/>
<path d="M66.2465 50C64.6323 50 63.3808 49.5926 62.4921 48.7777C61.6034 47.9538 61.159 46.7542 61.159 45.1788C61.159 43.6034 61.6034 42.4083 62.4921 41.5935C63.3899 40.7696 64.6413 40.3576 66.2465 40.3576C66.9448 40.3576 67.5796 40.4301 68.1509 40.5749C68.7222 40.7107 69.1983 40.9054 69.5792 41.1589C69.6789 41.2223 69.7288 41.2992 69.7288 41.3898C69.7288 41.4441 69.6971 41.5346 69.6336 41.6614L69.0351 42.6799C68.9806 42.7976 68.9081 42.8565 68.8174 42.8565C68.763 42.8565 68.6723 42.8248 68.5454 42.7614C67.965 42.4627 67.3211 42.3133 66.6138 42.3133C65.7704 42.3133 65.1038 42.5532 64.6141 43.033C64.1335 43.5129 63.8932 44.2282 63.8932 45.1788C63.8932 46.1476 64.1108 46.8674 64.5461 47.3382C64.9814 47.809 65.6026 48.0444 66.4097 48.0444C66.6092 48.0444 66.8178 48.0263 67.0354 47.99C67.2622 47.9538 67.4435 47.9086 67.5796 47.8542V46.1974H66.4097C66.1558 46.1974 65.979 46.1476 65.8792 46.048C65.7885 45.9484 65.7432 45.7764 65.7432 45.5319V44.9208C65.7432 44.6854 65.7885 44.5179 65.8792 44.4183C65.979 44.3187 66.1558 44.2689 66.4097 44.2689H69.3071C69.6154 44.2689 69.8286 44.3413 69.9464 44.4862C70.0643 44.622 70.1233 44.8348 70.1233 45.1245V48.4382C70.1233 48.6102 70.1006 48.746 70.0553 48.8456C70.019 48.9362 69.9374 49.0267 69.8104 49.1172C68.9761 49.7057 67.7881 50 66.2465 50Z" fill="#3700B3"/>
<path d="M55.3864 49.7963C55.1234 49.7963 54.9375 49.742 54.8287 49.6333C54.729 49.5247 54.6791 49.3526 54.6791 49.1172V41.254C54.6791 41.0186 54.7335 40.8465 54.8423 40.7379C54.9511 40.6202 55.1325 40.5613 55.3864 40.5613H61.0316C61.2855 40.5613 61.4578 40.6157 61.5485 40.7243C61.6392 40.8239 61.6845 40.9959 61.6845 41.2404V41.8651C61.6845 42.1096 61.6392 42.2861 61.5485 42.3947C61.4578 42.4943 61.2855 42.5441 61.0316 42.5441H57.4269V44.201H59.8074C60.0613 44.201 60.2336 44.2553 60.3243 44.364C60.424 44.4636 60.4739 44.6356 60.4739 44.88V45.4776C60.4739 45.722 60.424 45.8986 60.3243 46.0072C60.2336 46.1068 60.0613 46.1566 59.8074 46.1566H57.4269V47.8271H61.018C61.2719 47.8271 61.4442 47.8814 61.5349 47.99C61.6256 48.0896 61.6709 48.2617 61.6709 48.5061V49.1308C61.6709 49.3662 61.6256 49.5382 61.5349 49.6469C61.4442 49.7465 61.2719 49.7963 61.018 49.7963H55.3864Z" fill="#3700B3"/>
<path d="M46.0175 49.7963C45.7545 49.7963 45.5686 49.742 45.4598 49.6333C45.36 49.5247 45.3101 49.3526 45.3101 49.1172V41.254C45.3101 41.0186 45.3646 40.8465 45.4734 40.7379C45.5822 40.6202 45.7636 40.5613 46.0175 40.5613H47.337C47.6 40.5613 47.7859 40.6202 47.8947 40.7379C48.0035 40.8465 48.0579 41.0186 48.0579 41.254V44.1874H51.1594V41.254C51.1594 41.0186 51.2138 40.8465 51.3226 40.7379C51.4314 40.6202 51.6173 40.5613 51.8803 40.5613H53.1998C53.4628 40.5613 53.6487 40.6202 53.7575 40.7379C53.8663 40.8465 53.9207 41.0186 53.9207 41.254V49.1172C53.9207 49.3526 53.8663 49.5247 53.7575 49.6333C53.6487 49.742 53.4628 49.7963 53.1998 49.7963H51.8803C51.6173 49.7963 51.4314 49.742 51.3226 49.6333C51.2138 49.5247 51.1594 49.3526 51.1594 49.1172V46.1566H48.0579V49.1172C48.0579 49.3526 48.0035 49.5247 47.8947 49.6333C47.7859 49.742 47.6 49.7963 47.337 49.7963H46.0175Z" fill="#3700B3"/>
<path d="M41.3012 50C39.687 50 38.4356 49.5926 37.5469 48.7777C36.6581 47.9538 36.2138 46.7542 36.2138 45.1788C36.2138 43.5944 36.6445 42.3948 37.5061 41.5799C38.3766 40.7651 39.6145 40.3576 41.2196 40.3576C41.9179 40.3576 42.5482 40.4301 43.1104 40.5749C43.6727 40.7107 44.1442 40.9054 44.5251 41.1589C44.6249 41.2223 44.6747 41.3038 44.6747 41.4033C44.6747 41.4667 44.643 41.5618 44.5795 41.6885L43.9946 42.6799C43.9402 42.7976 43.8676 42.8565 43.777 42.8565C43.7225 42.8565 43.6319 42.8248 43.5049 42.7614C42.9608 42.4627 42.3215 42.3133 41.5869 42.3133C40.7435 42.3133 40.0906 42.5577 39.6281 43.0466C39.1747 43.5265 38.948 44.2372 38.948 45.1788C38.948 46.1204 39.1928 46.8357 39.6825 47.3246C40.1722 47.8135 40.8387 48.0579 41.6821 48.0579C42.4257 48.0579 43.0832 47.9086 43.6545 47.6098C43.7815 47.5464 43.8722 47.5147 43.9266 47.5147C44.0082 47.5147 44.0808 47.569 44.1442 47.6777L44.7564 48.7234C44.8108 48.8139 44.838 48.8954 44.838 48.9679C44.838 49.0493 44.7836 49.1308 44.6747 49.2123C43.913 49.7374 42.7885 50 41.3012 50Z" fill="#3700B3"/>
<path d="M28.0766 49.7963C27.8137 49.7963 27.6278 49.742 27.5189 49.6333C27.4192 49.5247 27.3693 49.3526 27.3693 49.1172V41.2404C27.3693 41.005 27.4237 40.833 27.5325 40.7243C27.6414 40.6157 27.8273 40.5613 28.0902 40.5613H29.1649C29.3281 40.5613 29.4551 40.584 29.5458 40.6292C29.6455 40.6745 29.7407 40.7651 29.8314 40.9009L32.9737 45.4097V41.254C32.9737 41.0186 33.0281 40.8465 33.1369 40.7379C33.2457 40.6202 33.4271 40.5613 33.681 40.5613H35.0005C35.2635 40.5613 35.4494 40.6202 35.5582 40.7379C35.667 40.8465 35.7214 41.0186 35.7214 41.254V49.1308C35.7214 49.3662 35.667 49.5382 35.5582 49.6469C35.4494 49.7465 35.2635 49.7963 35.0005 49.7963H33.9259C33.7536 49.7963 33.6221 49.7782 33.5314 49.742C33.4407 49.6967 33.35 49.6062 33.2593 49.4703L30.1171 44.9615V49.1308C30.1171 49.3662 30.0627 49.5382 29.9538 49.6469C29.845 49.7465 29.6591 49.7963 29.3961 49.7963H28.0766Z" fill="#3700B3"/>
<path d="M22.0525 50C20.4746 50 19.273 49.5835 18.4478 48.7506C17.6316 47.9086 17.2235 46.718 17.2235 45.1788C17.2235 43.6397 17.6316 42.4536 18.4478 41.6206C19.273 40.7786 20.4746 40.3576 22.0525 40.3576C23.6304 40.3576 24.8275 40.7786 25.6437 41.6206C26.4689 42.4536 26.8815 43.6397 26.8815 45.1788C26.8815 46.718 26.4689 47.9086 25.6437 48.7506C24.8275 49.5835 23.6304 50 22.0525 50ZM22.0525 48.0579C22.7689 48.0579 23.2949 47.818 23.6304 47.3382C23.975 46.8583 24.1473 46.1385 24.1473 45.1788C24.1473 44.2282 23.975 43.5129 23.6304 43.033C23.2949 42.5532 22.7689 42.3133 22.0525 42.3133C21.3361 42.3133 20.8056 42.5532 20.461 43.033C20.1254 43.5129 19.9577 44.2282 19.9577 45.1788C19.9577 46.1385 20.1254 46.8583 20.461 47.3382C20.8056 47.818 21.3361 48.0579 22.0525 48.0579Z" fill="#3700B3"/>
<path d="M14.0977 50C12.4835 50 11.2321 49.5926 10.3434 48.7777C9.45463 47.9538 9.01027 46.7542 9.01027 45.1788C9.01027 43.5944 9.44103 42.3948 10.3025 41.5799C11.1731 40.7651 12.411 40.3576 14.0161 40.3576C14.7144 40.3576 15.3447 40.4301 15.9069 40.5749C16.4692 40.7107 16.9407 40.9054 17.3216 41.1589C17.4214 41.2223 17.4712 41.3038 17.4712 41.4033C17.4712 41.4667 17.4395 41.5618 17.376 41.6885L16.7911 42.6799C16.7367 42.7976 16.6641 42.8565 16.5734 42.8565C16.519 42.8565 16.4283 42.8248 16.3014 42.7614C15.7573 42.4627 15.1179 42.3133 14.3834 42.3133C13.54 42.3133 12.8871 42.5577 12.4246 43.0466C11.9712 43.5265 11.7444 44.2372 11.7444 45.1788C11.7444 46.1204 11.9893 46.8357 12.479 47.3246C12.9687 47.8135 13.6352 48.0579 14.4786 48.0579C15.2222 48.0579 15.8797 47.9086 16.451 47.6098C16.578 47.5464 16.6687 47.5147 16.7231 47.5147C16.8047 47.5147 16.8772 47.569 16.9407 47.6777L17.5528 48.7234C17.6073 48.8139 17.6345 48.8954 17.6345 48.9679C17.6345 49.0493 17.5801 49.1308 17.4712 49.2123C16.7095 49.7374 15.585 50 14.0977 50Z" fill="#3700B3"/>
<path d="M0.285659 49.7963C0.0952198 49.7963 0 49.7148 0 49.5518C0 49.4794 0.0226714 49.3889 0.0680141 49.2802L3.52313 41.0231C3.59568 40.8511 3.67276 40.7334 3.75438 40.67C3.84506 40.5976 3.97656 40.5613 4.14886 40.5613H5.38672C5.55902 40.5613 5.68598 40.5976 5.7676 40.67C5.85828 40.7334 5.9399 40.8511 6.01245 41.0231L9.46756 49.2802C9.51291 49.3889 9.53558 49.4749 9.53558 49.5382C9.53558 49.6197 9.50837 49.6831 9.45396 49.7284C9.40862 49.7737 9.3406 49.7963 9.24992 49.7963H7.14148C7.01452 49.7963 6.91477 49.7737 6.84222 49.7284C6.76967 49.6741 6.71072 49.588 6.66538 49.4703L6.18928 48.1666H3.33269L2.8702 49.4703C2.82485 49.588 2.76591 49.6741 2.69336 49.7284C2.62081 49.7737 2.51652 49.7963 2.38049 49.7963H0.285659ZM5.59076 46.3196L4.76099 44.0109L3.93122 46.3196H5.59076Z" fill="#3700B3"/>
<path d="M58.8857 36.2155H54.4648V26.7089H55.3626V35.3735H58.8857V36.2155Z" fill="#3700B3"/>
<path d="M53.2167 36.2155H48.0613V26.7089H53.2167V27.5102H48.9591V31.177H52.4006V31.9511H48.9591V35.4142H53.2167V36.2155Z" fill="#3700B3"/>
<path d="M46.8411 27.5238H43.7804V36.2155H42.8826V27.5238H39.822V26.7089H46.8411V27.5238Z" fill="#3700B3"/>
<path d="M39.2832 31.4758C39.2832 32.1639 39.1608 32.8067 38.9159 33.4043C38.6802 33.9928 38.3491 34.5088 37.9229 34.9525C37.4967 35.3961 37.0025 35.7402 36.4402 35.9846C35.878 36.2291 35.2749 36.3513 34.631 36.3513C33.9781 36.3513 33.3705 36.2291 32.8083 35.9846C32.246 35.7311 31.7518 35.3825 31.3256 34.9389C30.8993 34.4862 30.5638 33.9656 30.319 33.3771C30.0832 32.7886 29.9653 32.1548 29.9653 31.4758C29.9653 30.7967 30.0877 30.163 30.3326 29.5745C30.5774 28.9769 30.9175 28.4563 31.3528 28.0127C31.7881 27.56 32.2868 27.2069 32.8491 26.9534C33.4113 26.6999 34.0053 26.5731 34.631 26.5731C35.2749 26.5731 35.878 26.7044 36.4402 26.967C37.0115 27.2205 37.5058 27.5736 37.9229 28.0263C38.3491 28.4789 38.6802 28.9995 38.9159 29.588C39.1608 30.1765 39.2832 30.8058 39.2832 31.4758ZM38.3718 31.4758C38.3718 30.9235 38.2766 30.4029 38.0862 29.914C37.8957 29.416 37.6282 28.9814 37.2836 28.6102C36.939 28.23 36.54 27.9312 36.0865 27.7139C35.6422 27.4966 35.157 27.388 34.631 27.388C34.1051 27.388 33.6154 27.4966 33.1619 27.7139C32.7085 27.9221 32.3095 28.2164 31.9649 28.5966C31.6294 28.9769 31.3618 29.416 31.1623 29.914C30.9719 30.4029 30.8767 30.9235 30.8767 31.4758C30.8767 32.0281 30.9719 32.5487 31.1623 33.0376C31.3528 33.5265 31.6203 33.9611 31.9649 34.3413C32.3095 34.7125 32.7085 35.0068 33.1619 35.2241C33.6154 35.4414 34.1051 35.55 34.631 35.55C35.157 35.55 35.6467 35.4459 36.1002 35.2377C36.5536 35.0204 36.9481 34.7261 37.2836 34.3549C37.6282 33.9746 37.8957 33.5401 38.0862 33.0512C38.2766 32.5622 38.3718 32.0371 38.3718 31.4758Z" fill="#3700B3"/>
<path d="M28.7473 36.2155H27.8495V31.9783H22.8029V36.2155H21.9051V26.7089H22.8029V31.2449H27.8495V26.7089H28.7473V36.2155Z" fill="#3700B3"/>
<path d="M42.9643 19.2395C46.7139 19.2395 48.7292 14.5856 46.1514 11.8508L40.4802 6.04536L34.8091 11.8508C32.1844 14.5856 34.2466 19.2395 37.9962 19.2395H42.9643Z" fill="#3700B3"/>
<path d="M34.856 7.86851L35.559 8.58819L40.4803 3.55042L45.4016 8.58819L46.1046 7.86851C47.8856 6.04531 48.5887 3.69436 48.4012 1.48734C48.3074 0.623726 47.6044 0 46.7608 0H34.2467C33.403 0 32.6531 0.623726 32.6062 1.48734C32.3719 3.69436 33.0281 5.99734 34.856 7.86851Z" fill="#3700B3"/>
</svg>
